<svg width="14" height="17" viewBox="0 0 14 17" fill="none"
  xmlns="http://www.w3.org/2000/svg">
  <path fill-rule="evenodd" clip-rule="evenodd" d="M7 6C8.10457 6 9 5.10457 9 4C9 2.89543 8.10457 2 7 2C5.89543 2 5 2.89543 5 4C5 5.10457 5.89543 6 7 6ZM7 8C9.20914 8 11 6.20914 11 4C11 1.79086 9.20914 0 7 0C4.79086 0 3 1.79086 3 4C3 6.20914 4.79086 8 7 8Z" fill="#333"/>
  <path fill-rule="evenodd" clip-rule="evenodd" d="M7 11C4.23858 11 2 13.2386 2 16C2 16.5523 1.55228 17 1 17C0.447715 17 0 16.5523 0 16C0 12.134 3.13401 9 7 9C10.866 9 14 12.134 14 16C14 16.5523 13.5523 17 13 17C12.4477 17 12 16.5523 12 16C12 13.2386 9.76142 11 7 11Z" fill="#333"/>
</svg>
